#!OML:ASF F:\VICON\USERDATA\INSTALL\rory3\rory3.ASF
:FULLY-SPECIFIED
:DEGREES
66
root -0.761107 17.5333 1.06996 15.0519 -4.72231 -3.52582
lowerback -12.2266 0.025754 2.76403
upperback -5.23109 -0.322607 1.43693
thorax 1.37251 -0.187735 -0.10705
lowerneck -16.4386 -2.31683 -6.33206
upperneck 30.3876 -2.42206 2.97052
head 13.0246 -1.42312 1.85768
rclavicle 7.3892e-015 -1.65985e-014
rhumerus -38.106 6.94467 -92.7562
rradius 32.3632
rwrist 8.21273
rhand -21.2294 -50.3354
rfingers 7.12502
rthumb 5.1529 -80.2527
lclavicle 7.3892e-015 -1.65985e-014
lhumerus -36.9813 -11.9651 94.8114
lradius 33.7193
lwrist 10.9444
lhand -33.0945 -27.1056
lfingers 7.12502
lthumb -6.30542 2.78053
rfemur -23.0346 13.4513 20.0777
rtibia 26.7164
rfoot -13.223 -13.648
rtoes -4.03004
lfemur -21.6488 -10.4512 -14.9702
ltibia 26.7792
lfoot -16.4633 16.9327
ltoes -1.14663
67
root -0.763568 17.5286 1.06755 15.0512 -4.7609 -3.52356
lowerback -12.0802 0.0231764 2.70555
upperback -5.25036 -0.31349 1.44834
thorax 1.27404 -0.183479 -0.0607546
lowerneck -16.4109 -2.33681 -6.42587
upperneck 30.3106 -2.46585 3.10232
head 12.9924 -1.43486 1.91745
rclavicle 3.10601e-018 -1.98785e-016
rhumerus -38.0618 7.08799 -92.8229
rradius 32.262
rwrist 7.98667
rhand -21.4128 -50.2735
rfingers 7.12502
rthumb 4.97573 -80.1951
lclavicle 3.10601e-018 -1.98785e-016
lhumerus -36.9685 -11.9413 94.7885
lradius 33.6752
lwrist 11.0153
lhand -32.9236 -26.7907
lfingers 7.12502
lthumb -6.14045 3.10034
rfemur -23.0782 13.5625 20.0639
rtibia 26.7393
rfoot -13.2024 -13.6323
rtoes -3.74841
lfemur -21.6013 -10.4038 -14.9789
ltibia 26.8106
lfoot -16.4887 16.9618
ltoes -2.65742
68
root -0.76412 17.5291 1.07061 15.0707 -4.86219 -3.49914
lowerback -12.0487 0.0484689 2.66447
upperback -5.27766 -0.273293 1.43039
thorax 1.22953 -0.163743 -0.0510068
lowerneck -16.2688 -2.32834 -6.52046
upperneck 30.2349 -2.48822 3.27072
head 12.9355 -1.43342 1.9955
rclavicle 7.32242e-015 1.78906e-014
rhumerus -38.0968 7.19868 -92.9019
rradius 32.2383
rwrist 7.78731
rhand -21.7099 -50.1909
rfingers 7.12502
rthumb 4.68892 -80.119
lclavicle 7.32242e-015 1.78906e-014
lhumerus -37.0677 -12.0602 94.8716
lradius 33.5521
lwrist 11.2414
lhand -33.2776 -26.8504
lfingers 7.12502
lthumb -6.48217 3.03036
rfemur -23.1214 13.5485 20.0202
rtibia 26.7535
rfoot -13.2337 -13.527
rtoes -3.76614
lfemur -21.619 -10.3755 -15.0256
ltibia 26.8339
lfoot -16.4507 17.0505
ltoes -2.74839
69
root -0.762424 17.5323 1.08096 15.1371 -4.87786 -3.53856
lowerback -12.1338 0.0693665 2.74975
upperback -5.31492 -0.257498 1.42889
thorax 1.2363 -0.157305 -0.0985132
lowerneck -16.2333 -2.30414 -6.54163
upperneck 30.2739 -2.46892 3.32924
head 12.9439 -1.42039 2.02581
rclavicle 3.36847e-015 -1.2921e-014
rhumerus -38.186 7.26778 -92.9419
rradius 32.2517
rwrist 7.78482
rhand -21.8014 -50.2418
rfingers 7.12502
rthumb 4.60051 -80.1719
lclavicle 3.36847e-015 -1.2921e-014
lhumerus -37.1091 -11.7222 94.6805
lradius 33.5424
lwrist 10.1777
lhand -33.1548 -25.7309
lfingers 7.12502
lthumb -6.36363 4.15352
rfemur -23.1558 13.369 20.0589
rtibia 26.746
rfoot -13.309 -13.4165
rtoes -4.24134
lfemur -21.6951 -10.3774 -14.9985
ltibia 26.8626
lfoot -16.4387 17.074
ltoes -2.13886
